<svg version="1.2" xmlns="http://www.w3.org/2000/svg" viewBox="0 0 764 764" width="764" height="764">
	<style>
		.s0 { fill: #1373b1 } 
		.s1 { fill: #4eb4e5 } 
		.s2 { fill: #b0d24b } 
		.s3 { fill: #1878b5 } 
		.s4 { fill: #1676b4 } 
		.s5 { fill: #fdfdfd } 
	</style>
	<g id="Layer 1">
		<path class="s0" d="m365.21 76.85h14.55l9.7 0.74 11.19 1.5 11.19 2.23 11.2 2.99 11.56 4.1 10.07 4.48 9.7 4.85 10.07 5.97 8.21 5.59 5.97 4.48 4.1 3.36 5.23 4.47 3.35 3.36 2.99 2.61 4.47 4.85 4.85 5.22 3.36 4.11 4.85 6.34 5.22 7.46 5.97 10.07 4.48 8.58 3.73 8.21 3.73 10.07 1.49 4.11 11.94 1.86 8.58 1.87 6.34 1.86 8.95 3.36 7.46 3.36 7.84 4.1 7.09 4.48 5.97 4.47 3.73 2.99 3.73 3.35 2.98 2.62 4.85 4.85 2.61 2.98 4.48 5.6 4.85 6.71 4.85 7.83 4.47 8.58 2.99 7.09 2.98 8.21 2.99 11.19 1.86 10.82 0.75 7.46v15.67l-1.12 10.07-1.87 10.45-2.98 10.81-3.36 8.96-4.47 9.32-2.24 4.11-3.36 5.59-4.1 5.97-3.36 4.48-4.48 5.22-3.35 3.73-5.23 5.22-4.1 3.36-3.36 2.99-6.71 4.85-5.6 3.73-6.71 3.73-8.96 4.1-8.95 3.36-4.85 1.49h-1.12v-47.38l7.09-4.1 6.71-4.48 4.85-4.1 3.73-3.36 0.38-0.74h0.74l0.75-1.5 4.1-4.47 4.48-6.35 3.36-5.96 3.35-7.09 2.62-8.21 1.49-6.71 1.12-8.58v-11.2l-1.12-8.58-2.24-9.69-2.61-7.47-2.99-6.34-3.73-6.34-5.22-7.09-5.22-5.59-2.61-2.61-5.23-4.11-5.96-4.1-8.21-4.48-9.33-3.73-8.95-2.24-8.58-1.12-4.48-0.37h-7.09l-8.95 1.12-9.7 2.24-1.86 0.37-0.38-0.37-0.74-10.07-1.49-10.08-2.24-9.69-4.11-12.32-4.1-8.95-2.98-5.97-4.48-7.46-4.48-6.34-4.85-5.97-4.1-4.48-3.36-3.73-5.59-5.22-5.23-4.1-4.85-3.73-4.47-2.99-6.72-4.1-5.22-2.98-8.95-4.11-10.08-3.73-9.69-2.61-9.7-1.87-9.7-1.11-7.84-0.38h-5.97l-10.44 0.75-11.94 1.86-10.44 2.62-10.08 3.35-9.7 4.11-8.2 4.47-7.09 4.48-5.22 3.73-4.85 3.73-4.85 4.1-10.07 10.08-4.11 5.22-3.73 4.85-3.73 5.59-4.1 7.09-3.36 6.34-3.73 8.96-3.36 10.07-2.24 9.33-1.49 8.58-1.12 11.93-0.37 1.49-3.73-0.74-8.58-1.87-5.6-0.74-5.22-0.38h-6.71l-8.21 0.75-9.33 1.87-8.58 2.98-7.83 3.73-7.09 4.48-4.85 3.73-4.48 4.1-2.23 1.87-0.38 0.74h-0.74l-0.75 1.49-3.36 3.74-4.1 5.96-3.73 6.35-3.36 7.08-2.61 7.84-1.86 8.58-1.12 10.44v5.97l1.12 10.45 1.86 8.58 2.61 7.83 4.48 9.33 3.73 5.97 3.36 4.47 4.1 4.85 3.36 3.36 4.1 3.36 5.6 4.1 7.08 4.1 6.35 2.99 8.95 2.98 7.46 1.49 5.22 0.75 133.55 0.37-0.37 1.5-1.49 3.35-0.75 3.73v2.99l1.49 5.59 2.62 4.11 2.61 2.61 4.47 2.98-0.74 1.87-1.12 2.24-0.37 1.86v3.73l1.11 3.36 2.62 3.73 0.74 0.37v1.12h-136.16l-14.18-0.74-9.69-1.5-10.08-2.23-12.31-4.11-8.95-4.1-7.46-4.1-7.09-4.48-5.97-4.48-4.85-4.1-3.73-3.36-7.09-7.09-3.35-4.1-3.73-4.48-4.85-7.08-4.48-7.47-4.48-8.95-3.35-8.58-2.99-9.32-2.24-9.7-1.12-7.46-0.74-8.96v-13.05l0.74-9.33 1.5-9.33 2.61-10.44 3.35-10.07 4.11-9.33 4.1-7.83 4.48-7.09 3.73-5.23 4.1-5.22 4.48-4.85 3.36-3.73 2.98-2.61 4.48-4.1 6.34-4.85 7.83-5.22 6.34-3.74 10.08-4.85 8.95-3.35 8.95-2.61 10.45-2.24 9.7-1.12 1.12-3.73 3.35-9.33 4.85-10.44 2.99-5.97 5.22-9.33 6.34-9.32 4.48-5.97 3.36-4.11 4.47-5.22 11.19-11.19 2.99-2.61 5.22-4.48 7.46-5.59 8.21-5.6 9.33-5.6 10.07-5.22 8.21-3.73 11.19-4.1 13.05-3.73 10.45-2.24 10.07-1.49 7.84-0.75z"/>
		<path class="s1" d="m332.76 304.41h3.36l4.47 1.12 3.73 2.23 2.24 2.99 1.49 3.73v4.85l-1.86 3.73-2.99 2.98-3.35 1.87-2.99 1.12-3.36 0.37-16.78 0.37-3.36 1.12-0.37 1.87 2.23 3.36 4.85 2.98 5.97 2.98 6.72 2.62 7.09 2.23 12.31 2.99 11.56 2.24 18.28 2.61 17.16 1.86 22.01 1.87 18.28 1.12 10.44 0.37 62.68 0.75 7.08 1.12 5.23 1.86 3.73 1.87 4.1 2.98 4.48 4.48 2.98 4.85 2.24 5.97 1.12 6.34 0.37 4.85v47.75l-8.58 0.37h-106.32l-0.37-0.37-1.12-9.7-1.49-6.72-2.61-7.83-2.99-6.34-4.1-6.35-3.36-4.1-4.1-4.48-2.99-2.98-4.1-3.36-6.34-4.47-8.21-4.85-10.82-5.23-8.58-3.35-10.44-3.36-15.3-4.1-10.81-2.99-10.45-3.73-8.58-3.73-4.85-2.61-5.22-3.73-4.85-4.1-2.99-4.11-1.86-3.73-1.12-4.85v-2.98l1.49-4.85 2.24-3.36 3.36-3.36 5.59-3.73 5.97-2.98 9.33-3.36 8.21-2.24z"/>
		<path id="AliMed" fill-rule="evenodd" class="s0" d="m212.32 610h-24l-12.48-27.52h-51.2l-12.48 27.52h-23.36l51.84-110.88h19.52zm-44.16-44.32l-17.76-42.88-18.08 42.88zm54.44-66.56h21.12v110.88h-21.12zm61.6 110.88h-21.12v-78.56h21.12zm0.64-93.6h-22.24v-19.04h22.24z"/>
		<path id="AliMed" fill-rule="evenodd" class="s1" d="m332.6 499.12l37.44 85.6 37.44-85.6h25.92v110.88h-22.08v-77.92l-33.6 77.92h-15.52l-33.6-77.92v77.92h-21.92v-110.88zm184.08 84.8h22.08q-1.92 7.68-5.76 12.96-3.84 5.28-9.44 8.64-5.44 3.2-12.48 4.64-6.88 1.44-14.72 1.44-11.84 0-20.48-3.04-8.48-3.2-14.08-8.64-5.44-5.44-8.16-12.8-2.56-7.52-2.56-16.32 0-10.4 3.2-18.08 3.36-7.68 9.12-12.64 5.92-5.12 14.24-7.52 8.32-2.56 18.4-2.56 9.6 0 17.44 2.56 8 2.56 13.6 7.68 5.6 4.96 8.64 12.64 3.04 7.52 3.04 17.6v5.6h-65.92q0.48 4.16 1.92 7.84 1.44 3.68 4.16 6.56 2.88 2.72 7.04 4.32 4.32 1.6 10.4 1.6 16.48 0 20.32-12.48zm-43.52-22.4h43.36q-0.32-3.36-1.92-6.4-1.6-3.04-4.32-5.28-2.56-2.4-6.24-3.68-3.52-1.44-8-1.44-5.28 0-9.44 1.44-4 1.44-6.88 3.84-2.88 2.24-4.48 5.28-1.6 3.04-2.08 6.24zm144.96 48.48v-8.96q-2.4 3.04-6.08 5.28-3.2 2.08-8 3.68-4.8 1.6-11.52 1.6-19.84 0-31.04-10.56-11.2-10.72-11.2-30.4 0-9.12 2.56-16.48 2.72-7.52 8.16-12.96 5.6-5.44 13.92-8.32 8.48-3.04 20.16-3.04 2.56 0 5.6 0.64 3.04 0.64 6.08 1.76 3.04 1.12 5.76 2.88 2.72 1.6 4.64 3.68v-39.68h20.8v110.88zm-23.04-65.28q-6.24 0-10.72 2.24-4.32 2.08-7.2 5.76-2.88 3.68-4.16 8.48-1.28 4.64-1.28 9.6 0 4.96 1.28 9.6 1.28 4.64 4.16 8.16 2.88 3.52 7.2 5.76 4.48 2.08 10.72 2.08 5.76 0 9.92-2.08 4.32-2.24 7.04-5.6 2.72-3.36 4-7.52 1.44-4.16 1.44-8.32v-3.36q-0.16-4.8-1.6-9.28-1.44-4.48-4.16-7.84-2.72-3.52-6.88-5.6-4.16-2.08-9.76-2.08z"/>
		<path class="s1" d="m536.07 196.6l12.31 1.86 8.58 1.87 6.34 1.86 8.95 3.36 7.46 3.36 7.84 4.1 7.09 4.48 5.97 4.47 3.73 2.99 3.73 3.35 2.98 2.62 4.85 4.85 2.61 2.98 4.48 5.6 4.85 6.71 4.85 7.83 4.47 8.58 2.99 7.09 2.98 8.21 2.99 11.19 1.86 10.82 0.75 7.46v15.67l-1.12 10.07-1.87 10.45-2.98 10.81-3.36 8.96-4.47 9.32-2.24 4.11-3.36 5.59-4.1 5.97-3.36 4.48-4.48 5.22-3.35 3.73-5.23 5.22-4.1 3.36-3.36 2.99-6.71 4.85-5.6 3.73-6.71 3.73-8.96 4.1-8.95 3.36-4.85 1.49h-1.12v-47.38l7.09-4.1 6.71-4.48 4.85-4.1 3.73-3.36 0.38-0.74h0.74l0.75-1.5 4.1-4.47 4.48-6.35 3.36-5.96 3.35-7.09 2.62-8.21 1.49-6.71 1.12-8.58v-11.2l-1.12-8.58-2.24-9.69-2.61-7.47-2.99-6.34-3.73-6.34-5.22-7.09-5.22-5.59-2.61-2.61-5.23-4.11-5.96-4.1-8.21-4.48-9.33-3.73-5.59-1.49-0.38-1.49-0.74-13.43-1.5-12.31-1.86-9.7-2.61-8.96z"/>
		<path class="s0" d="m347.31 185.4h39.91l2.99 1.5 2.98 3.35 0.37 1.12v42.53h42.9l3.74 2.24 2.23 3.36 0.38 19.77v23.13l-2.24 3.73-2.99 1.86-1.12 0.38-42.9 0.37v15.29l-4.1 2.99-1.49 1.86-1.12 4.48v5.22l1.49 3.73 2.61 3.36 2.99 2.24-0.38 2.24-1.86 2.61-3.36 1.86h-9.7l-0.37-0.37v-13.8l0.37-1.12 3.36-2.61 2.61-3.73 1.49-2.99 0.75-3.73v-5.59l-1.12-3.73-1.49-2.99-2.61-3.36-2.61-2.23-2.99-1.87-5.22-1.49h-5.97l-4.85 1.49-4.1 2.61-2.99 2.99-2.24 3.73-1.49 4.85v5.22l0.75 3.73 3.36 5.59 2.98 2.99 1.49 1.12 0.37 8.58v6.71l-0.37 0.38h-12.31l-3.73-2.24-1.49-1.87 0.37-1.12 4.11-2.61 2.23-1.86 1.87-2.61 1.12-3.73v-5.23l-1.12-4.47-3.36-3.73-1.86-1.5-4.11-1.12v-14.17l-41.78-0.37-3.73-1.87-2.61-2.98-0.37-0.75v-42.9l1.49-2.61 2.61-2.24 2.61-1.12h41.78v-39.92l0.38-3.73 2.23-2.98 2.24-1.49z"/>
		<path class="s1" d="m475.26 282.02h3.36l5.59 0.75 5.23 1.49 6.34 3.36 3.73 2.98 2.61 2.24 3.36 4.48 2.98 5.97 1.5 4.85 0.74 4.1v6.34l-1.49 6.72-1.87 4.47-2.23 4.11-3.36 4.1-2.99 2.98-4.85 3.36-5.59 2.61-7.46 1.87h-6.72l-5.22-1.12-6.71-2.61-5.23-3.36-3.73-3.36-2.98-3.35-3.36-5.6-2.24-5.97-0.74-3.73v-7.83l1.11-5.6 1.87-4.85 2.24-4.1 3.73-4.85 4.1-3.73 5.6-3.36 4.85-1.86 4.85-1.12z"/>
		<path class="s2" d="m337.98 372.3l3.73 0.75 8.21 2.61-0.38 1.86-0.37 1.12v4.48l1.87 2.98 2.98 2.24 5.6 2.24 5.22 1.87-0.37-2.62v-8.58l2.61 0.38 6.34 2.61 0.37 2.61 0.38 8.21 5.96 2.98 4.48 3.36 2.24 3.36 1.49 4.1 0.37 3.73-1.11 3.73-2.24 2.98-2.99 2.99-4.1 2.24 0.75 1.49 2.23 3.36 0.75 3.73-0.75 2.98-2.23 3.36-3.36 2.98-1.87 1.12h-0.74v1.12l1.49 0.75v1.12l-2.61-0.75-1.49 9.33-0.38 1.49h-1.12l-1.49-4.85-1.12-5.22-1.86 0.74h-1.12l0.74-1.49 1.5-1.49-0.75-1.49-2.98-2.24-2.99-2.99-1.86-3.73 0.37-3.35 1.86-3.36 2.24-2.24h0.75v-0.75l-2.24-0.74-4.1-2.99-2.99-2.98-1.86-3.36-0.38-1.49v-4.85l1.5-3.73 1.86-2.24 0.75-0.74-6.34-2.24-5.23-2.61-4.1-3.73-2.98-4.48-1.12-3.36v-6.71l1.86-4.48z"/>
		<path class="s2" d="m397.67 304.78h6.71l5.6 1.12 8.58 2.61 6.71 2.61 6.72 3.73 4.1 3.36 2.24 2.98 1.87 4.48v5.6l-1.5 3.73-2.98 4.1-4.85 4.85-6.34 4.85-0.38 0.37-5.22-0.37-23.13-1.87-14.55-1.86-1.49-0.75 4.48-1.12 9.32-1.86 10.45-2.61 7.46-2.61 5.97-2.99 2.61-1.86v-1.12l-2.98-0.75-4.11-0.37-11.56-0.38-4.85-1.11-3.36-1.87-2.98-2.98-1.5-3.36v-6.72l1.87-3.73 3.36-2.61z"/>
		<path class="s2" d="m364.47 291.72h6.34l3.73 1.49 2.98 2.62 2.24 4.1 0.37 1.86v4.48l-1.49 3.73-3.35 3.73-3.36 1.49-1.49 0.38h-4.11l-3.73-1.12-2.24-1.49-2.98-3.36-1.49-3.73v-5.22l1.49-3.73 2.61-2.99z"/>
		<path class="s2" d="m373.05 320.07h1.49l-0.37 23.51-1.5 0.37-9.7-1.49-0.37-0.38v-21.63h7.09z"/>
		<path class="s3" d="m348.8 308.88h0.74l2.99 5.23 3.36 3.73 1.86 1.49 0.37 8.58v6.71l-0.37 0.38h-12.31l-3.73-2.24-1.49-1.87 0.37-1.12 4.11-2.61 2.23-1.86 1.87-2.61 1.12-3.73v-5.23z"/>
		<path class="s4" d="m386.1 310h1.12l-0.37 3.36v5.22l1.49 3.73 2.61 3.36 2.99 2.24-0.38 2.24-1.86 2.61-3.36 1.86h-9.7l-0.37-0.37v-13.8l0.37-1.12 3.36-2.61 2.61-3.73z"/>
		<path class="s5" d="m333.88 307.76h3.73l2.98 1.5 1.12 2.61-0.37 2.98-1.49 2.24-1.87 1.12h-4.48l-2.23-1.49-1.12-2.24v-2.61l1.86-2.99z"/>
		<path class="s5" d="m399.16 307.39l2.98 0.37 1.87 1.12 1.49 1.87v3.73l-2.24 2.61-1.86 0.75h-2.99l-2.61-1.5-1.49-2.61v-2.24l1.49-2.23 2.24-1.5z"/>
		<path class="s2" d="m382.37 389.46l1.5 0.37 5.96 3.73 1.87 1.5v1.12l-4.1 1.86-2.99 0.37-4.85-2.98-3.73-1.87 0.75-1.49z"/>
		<path class="s5" d="m364.09 405.13h1.12l0.38 14.55-1.87-1.49-2.61-2.99-1.49-2.61v-2.61l2.24-2.99z"/>
		<path class="s5" d="m373.05 406.25l1.86 0.74 2.99 2.24 1.12 1.87-0.38 2.61-2.61 2.98-2.24 1.87h-1.12v-11.57z"/>
		<path class="s5" d="m372.67 428.63l1.5 0.75 2.23 3.35 0.38 2.62-1.87 3.73-2.24 2.61h-0.74l0.37-12.69z"/>
		<path class="s5" d="m364.84 430.12h0.75l0.37 5.6v4.85l-1.49-0.75-2.24-4.47 0.37-2.62z"/>
	</g>
</svg>