<svg version="1.2" xmlns="http://www.w3.org/2000/svg" viewBox="0 0 764 764" width="764" height="764">
	<style>
		.s0 { fill: #1373b1 } 
		.s1 { fill: #4eb4e5 } 
		.s2 { fill: #b0d24b } 
		.s3 { fill: #1878b5 } 
		.s4 { fill: #1676b4 } 
		.s5 { fill: #fdfdfd } 
		.s6 { fill: #333333 } 
	</style>
	<g id="Layer 1">
		<path class="s0" d="m365.21 76.85h14.55l9.7 0.74 11.19 1.5 11.19 2.23 11.2 2.99 11.56 4.1 10.07 4.48 9.7 4.85 10.07 5.97 8.21 5.59 5.97 4.48 4.1 3.36 5.23 4.47 3.35 3.36 2.99 2.61 4.47 4.85 4.85 5.22 3.36 4.11 4.85 6.34 5.22 7.46 5.97 10.07 4.48 8.58 3.73 8.21 3.73 10.07 1.49 4.11 11.94 1.86 8.58 1.87 6.34 1.86 8.95 3.36 7.46 3.36 7.84 4.1 7.09 4.48 5.97 4.47 3.73 2.99 3.73 3.35 2.98 2.62 4.85 4.85 2.61 2.98 4.48 5.6 4.85 6.71 4.85 7.83 4.47 8.58 2.99 7.09 2.98 8.21 2.99 11.19 1.86 10.82 0.75 7.46v15.67l-1.12 10.07-1.87 10.45-2.98 10.81-3.36 8.96-4.47 9.32-2.24 4.11-3.36 5.59-4.1 5.97-3.36 4.48-4.48 5.22-3.35 3.73-5.23 5.22-4.1 3.36-3.36 2.99-6.71 4.85-5.6 3.73-6.71 3.73-8.96 4.1-8.95 3.36-4.85 1.49h-1.12v-47.38l7.09-4.1 6.71-4.48 4.85-4.1 3.73-3.36 0.38-0.74h0.74l0.75-1.5 4.1-4.47 4.48-6.35 3.36-5.96 3.35-7.09 2.62-8.21 1.49-6.71 1.12-8.58v-11.2l-1.12-8.58-2.24-9.69-2.61-7.47-2.99-6.34-3.73-6.34-5.22-7.09-5.22-5.59-2.61-2.61-5.23-4.11-5.96-4.1-8.21-4.48-9.33-3.73-8.95-2.24-8.58-1.12-4.48-0.37h-7.09l-8.95 1.12-9.7 2.24-1.86 0.37-0.38-0.37-0.74-10.07-1.49-10.08-2.24-9.69-4.11-12.32-4.1-8.95-2.98-5.97-4.48-7.46-4.48-6.34-4.85-5.97-4.1-4.48-3.36-3.73-5.59-5.22-5.23-4.1-4.85-3.73-4.47-2.99-6.72-4.1-5.22-2.98-8.95-4.11-10.08-3.73-9.69-2.61-9.7-1.87-9.7-1.11-7.84-0.38h-5.97l-10.44 0.75-11.94 1.86-10.44 2.62-10.08 3.35-9.7 4.11-8.2 4.47-7.09 4.48-5.22 3.73-4.85 3.73-4.85 4.1-10.07 10.08-4.11 5.22-3.73 4.85-3.73 5.59-4.1 7.09-3.36 6.34-3.73 8.96-3.36 10.07-2.24 9.33-1.49 8.58-1.12 11.93-0.37 1.49-3.73-0.74-8.58-1.87-5.6-0.74-5.22-0.38h-6.71l-8.21 0.75-9.33 1.87-8.58 2.98-7.83 3.73-7.09 4.48-4.85 3.73-4.48 4.1-2.23 1.87-0.38 0.74h-0.74l-0.75 1.49-3.36 3.74-4.1 5.96-3.73 6.35-3.36 7.08-2.61 7.84-1.86 8.58-1.12 10.44v5.97l1.12 10.45 1.86 8.58 2.61 7.83 4.48 9.33 3.73 5.97 3.36 4.47 4.1 4.85 3.36 3.36 4.1 3.36 5.6 4.1 7.08 4.1 6.35 2.99 8.95 2.98 7.46 1.49 5.22 0.75 133.55 0.37-0.37 1.5-1.49 3.35-0.75 3.73v2.99l1.49 5.59 2.62 4.11 2.61 2.61 4.47 2.98-0.74 1.87-1.12 2.24-0.37 1.86v3.73l1.11 3.36 2.62 3.73 0.74 0.37v1.12h-136.16l-14.18-0.74-9.69-1.5-10.08-2.23-12.31-4.11-8.95-4.1-7.46-4.1-7.09-4.48-5.97-4.48-4.85-4.1-3.73-3.36-7.09-7.09-3.35-4.1-3.73-4.48-4.85-7.08-4.48-7.47-4.48-8.95-3.35-8.58-2.99-9.32-2.24-9.7-1.12-7.46-0.74-8.96v-13.05l0.74-9.33 1.5-9.33 2.61-10.44 3.35-10.07 4.11-9.33 4.1-7.83 4.48-7.09 3.73-5.23 4.1-5.22 4.48-4.85 3.36-3.73 2.98-2.61 4.48-4.1 6.34-4.85 7.83-5.22 6.34-3.74 10.08-4.85 8.95-3.35 8.95-2.61 10.45-2.24 9.7-1.12 1.12-3.73 3.35-9.33 4.85-10.44 2.99-5.97 5.22-9.33 6.34-9.32 4.48-5.97 3.36-4.11 4.47-5.22 11.19-11.19 2.99-2.61 5.22-4.48 7.46-5.59 8.21-5.6 9.33-5.6 10.07-5.22 8.21-3.73 11.19-4.1 13.05-3.73 10.45-2.24 10.07-1.49 7.84-0.75z"/>
		<path class="s1" d="m332.76 304.41h3.36l4.47 1.12 3.73 2.23 2.24 2.99 1.49 3.73v4.85l-1.86 3.73-2.99 2.98-3.35 1.87-2.99 1.12-3.36 0.37-16.78 0.37-3.36 1.12-0.37 1.87 2.23 3.36 4.85 2.98 5.97 2.98 6.72 2.62 7.09 2.23 12.31 2.99 11.56 2.24 18.28 2.61 17.16 1.86 22.01 1.87 18.28 1.12 10.44 0.37 62.68 0.75 7.08 1.12 5.23 1.86 3.73 1.87 4.1 2.98 4.48 4.48 2.98 4.85 2.24 5.97 1.12 6.34 0.37 4.85v47.75l-8.58 0.37h-106.32l-0.37-0.37-1.12-9.7-1.49-6.72-2.61-7.83-2.99-6.34-4.1-6.35-3.36-4.1-4.1-4.48-2.99-2.98-4.1-3.36-6.34-4.47-8.21-4.85-10.82-5.23-8.58-3.35-10.44-3.36-15.3-4.1-10.81-2.99-10.45-3.73-8.58-3.73-4.85-2.61-5.22-3.73-4.85-4.1-2.99-4.11-1.86-3.73-1.12-4.85v-2.98l1.49-4.85 2.24-3.36 3.36-3.36 5.59-3.73 5.97-2.98 9.33-3.36 8.21-2.24z"/>
		<path id="AliMed" fill-rule="evenodd" class="s0" d="m212.32 610h-24l-12.48-27.52h-51.2l-12.48 27.52h-23.36l51.84-110.88h19.52zm-44.16-44.32l-17.76-42.88-18.08 42.88zm54.44-66.56h21.12v110.88h-21.12zm61.6 110.88h-21.12v-78.56h21.12zm0.64-93.6h-22.24v-19.04h22.24z"/>
		<path id="AliMed" fill-rule="evenodd" class="s1" d="m332.6 499.12l37.44 85.6 37.44-85.6h25.92v110.88h-22.08v-77.92l-33.6 77.92h-15.52l-33.6-77.92v77.92h-21.92v-110.88zm184.08 84.8h22.08q-1.92 7.68-5.76 12.96-3.84 5.28-9.44 8.64-5.44 3.2-12.48 4.64-6.88 1.44-14.72 1.44-11.84 0-20.48-3.04-8.48-3.2-14.08-8.64-5.44-5.44-8.16-12.8-2.56-7.52-2.56-16.32 0-10.4 3.2-18.08 3.36-7.68 9.12-12.64 5.92-5.12 14.24-7.52 8.32-2.56 18.4-2.56 9.6 0 17.44 2.56 8 2.56 13.6 7.68 5.6 4.96 8.64 12.64 3.04 7.52 3.04 17.6v5.6h-65.92q0.48 4.16 1.92 7.84 1.44 3.68 4.16 6.56 2.88 2.72 7.04 4.32 4.32 1.6 10.4 1.6 16.48 0 20.32-12.48zm-43.52-22.4h43.36q-0.32-3.36-1.92-6.4-1.6-3.04-4.32-5.28-2.56-2.4-6.24-3.68-3.52-1.44-8-1.44-5.28 0-9.44 1.44-4 1.44-6.88 3.84-2.88 2.24-4.48 5.28-1.6 3.04-2.08 6.24zm144.96 48.48v-8.96q-2.4 3.04-6.08 5.28-3.2 2.08-8 3.68-4.8 1.6-11.52 1.6-19.84 0-31.04-10.56-11.2-10.72-11.2-30.4 0-9.12 2.56-16.48 2.72-7.52 8.16-12.96 5.6-5.44 13.92-8.32 8.48-3.04 20.16-3.04 2.56 0 5.6 0.64 3.04 0.64 6.08 1.76 3.04 1.12 5.76 2.88 2.72 1.6 4.64 3.68v-39.68h20.8v110.88zm-23.04-65.28q-6.24 0-10.72 2.24-4.32 2.08-7.2 5.76-2.88 3.68-4.16 8.48-1.28 4.64-1.28 9.6 0 4.96 1.28 9.6 1.28 4.64 4.16 8.16 2.88 3.52 7.2 5.76 4.48 2.08 10.72 2.08 5.76 0 9.92-2.08 4.32-2.24 7.04-5.6 2.72-3.36 4-7.52 1.44-4.16 1.44-8.32v-3.36q-0.16-4.8-1.6-9.28-1.44-4.48-4.16-7.84-2.72-3.52-6.88-5.6-4.16-2.08-9.76-2.08z"/>
		<path class="s1" d="m536.07 196.6l12.31 1.86 8.58 1.87 6.34 1.86 8.95 3.36 7.46 3.36 7.84 4.1 7.09 4.48 5.97 4.47 3.73 2.99 3.73 3.35 2.98 2.62 4.85 4.85 2.61 2.98 4.48 5.6 4.85 6.71 4.85 7.83 4.47 8.58 2.99 7.09 2.98 8.21 2.99 11.19 1.86 10.82 0.75 7.46v15.67l-1.12 10.07-1.87 10.45-2.98 10.81-3.36 8.96-4.47 9.32-2.24 4.11-3.36 5.59-4.1 5.97-3.36 4.48-4.48 5.22-3.35 3.73-5.23 5.22-4.1 3.36-3.36 2.99-6.71 4.85-5.6 3.73-6.71 3.73-8.96 4.1-8.95 3.36-4.85 1.49h-1.12v-47.38l7.09-4.1 6.71-4.48 4.85-4.1 3.73-3.36 0.38-0.74h0.74l0.75-1.5 4.1-4.47 4.48-6.35 3.36-5.96 3.35-7.09 2.62-8.21 1.49-6.71 1.12-8.58v-11.2l-1.12-8.58-2.24-9.69-2.61-7.47-2.99-6.34-3.73-6.34-5.22-7.09-5.22-5.59-2.61-2.61-5.23-4.11-5.96-4.1-8.21-4.48-9.33-3.73-5.59-1.49-0.38-1.49-0.74-13.43-1.5-12.31-1.86-9.7-2.61-8.96z"/>
		<path class="s0" d="m347.31 185.4h39.91l2.99 1.5 2.98 3.35 0.37 1.12v42.53h42.9l3.74 2.24 2.23 3.36 0.38 19.77v23.13l-2.24 3.73-2.99 1.86-1.12 0.38-42.9 0.37v15.29l-4.1 2.99-1.49 1.86-1.12 4.48v5.22l1.49 3.73 2.61 3.36 2.99 2.24-0.38 2.24-1.86 2.61-3.36 1.86h-9.7l-0.37-0.37v-13.8l0.37-1.12 3.36-2.61 2.61-3.73 1.49-2.99 0.75-3.73v-5.59l-1.12-3.73-1.49-2.99-2.61-3.36-2.61-2.23-2.99-1.87-5.22-1.49h-5.97l-4.85 1.49-4.1 2.61-2.99 2.99-2.24 3.73-1.49 4.85v5.22l0.75 3.73 3.36 5.59 2.98 2.99 1.49 1.12 0.37 8.58v6.71l-0.37 0.38h-12.31l-3.73-2.24-1.49-1.87 0.37-1.12 4.11-2.61 2.23-1.86 1.87-2.61 1.12-3.73v-5.23l-1.12-4.47-3.36-3.73-1.86-1.5-4.11-1.12v-14.17l-41.78-0.37-3.73-1.87-2.61-2.98-0.37-0.75v-42.9l1.49-2.61 2.61-2.24 2.61-1.12h41.78v-39.92l0.38-3.73 2.23-2.98 2.24-1.49z"/>
		<path class="s1" d="m475.26 282.02h3.36l5.59 0.75 5.23 1.49 6.34 3.36 3.73 2.98 2.61 2.24 3.36 4.48 2.98 5.97 1.5 4.85 0.74 4.1v6.34l-1.49 6.72-1.87 4.47-2.23 4.11-3.36 4.1-2.99 2.98-4.85 3.36-5.59 2.61-7.46 1.87h-6.72l-5.22-1.12-6.71-2.61-5.23-3.36-3.73-3.36-2.98-3.35-3.36-5.6-2.24-5.97-0.74-3.73v-7.83l1.11-5.6 1.87-4.85 2.24-4.1 3.73-4.85 4.1-3.73 5.6-3.36 4.85-1.86 4.85-1.12z"/>
		<path class="s2" d="m337.98 372.3l3.73 0.75 8.21 2.61-0.38 1.86-0.37 1.12v4.48l1.87 2.98 2.98 2.24 5.6 2.24 5.22 1.87-0.37-2.62v-8.58l2.61 0.38 6.34 2.61 0.37 2.61 0.38 8.21 5.96 2.98 4.48 3.36 2.24 3.36 1.49 4.1 0.37 3.73-1.11 3.73-2.24 2.98-2.99 2.99-4.1 2.24 0.75 1.49 2.23 3.36 0.75 3.73-0.75 2.98-2.23 3.36-3.36 2.98-1.87 1.12h-0.74v1.12l1.49 0.75v1.12l-2.61-0.75-1.49 9.33-0.38 1.49h-1.12l-1.49-4.85-1.12-5.22-1.86 0.74h-1.12l0.74-1.49 1.5-1.49-0.75-1.49-2.98-2.24-2.99-2.99-1.86-3.73 0.37-3.35 1.86-3.36 2.24-2.24h0.75v-0.75l-2.24-0.74-4.1-2.99-2.99-2.98-1.86-3.36-0.38-1.49v-4.85l1.5-3.73 1.86-2.24 0.75-0.74-6.34-2.24-5.23-2.61-4.1-3.73-2.98-4.48-1.12-3.36v-6.71l1.86-4.48z"/>
		<path class="s2" d="m397.67 304.78h6.71l5.6 1.12 8.58 2.61 6.71 2.61 6.72 3.73 4.1 3.36 2.24 2.98 1.87 4.48v5.6l-1.5 3.73-2.98 4.1-4.85 4.85-6.34 4.85-0.38 0.37-5.22-0.37-23.13-1.87-14.55-1.86-1.49-0.75 4.48-1.12 9.32-1.86 10.45-2.61 7.46-2.61 5.97-2.99 2.61-1.86v-1.12l-2.98-0.75-4.11-0.37-11.56-0.38-4.85-1.11-3.36-1.87-2.98-2.98-1.5-3.36v-6.72l1.87-3.73 3.36-2.61z"/>
		<path class="s2" d="m364.47 291.72h6.34l3.73 1.49 2.98 2.62 2.24 4.1 0.37 1.86v4.48l-1.49 3.73-3.35 3.73-3.36 1.49-1.49 0.38h-4.11l-3.73-1.12-2.24-1.49-2.98-3.36-1.49-3.73v-5.22l1.49-3.73 2.61-2.99z"/>
		<path class="s2" d="m373.05 320.07h1.49l-0.37 23.51-1.5 0.37-9.7-1.49-0.37-0.38v-21.63h7.09z"/>
		<path class="s3" d="m348.8 308.88h0.74l2.99 5.23 3.36 3.73 1.86 1.49 0.37 8.58v6.71l-0.37 0.38h-12.31l-3.73-2.24-1.49-1.87 0.37-1.12 4.11-2.61 2.23-1.86 1.87-2.61 1.12-3.73v-5.23z"/>
		<path class="s4" d="m386.1 310h1.12l-0.37 3.36v5.22l1.49 3.73 2.61 3.36 2.99 2.24-0.38 2.24-1.86 2.61-3.36 1.86h-9.7l-0.37-0.37v-13.8l0.37-1.12 3.36-2.61 2.61-3.73z"/>
		<path class="s5" d="m333.88 307.76h3.73l2.98 1.5 1.12 2.61-0.37 2.98-1.49 2.24-1.87 1.12h-4.48l-2.23-1.49-1.12-2.24v-2.61l1.86-2.99z"/>
		<path class="s5" d="m399.16 307.39l2.98 0.37 1.87 1.12 1.49 1.87v3.73l-2.24 2.61-1.86 0.75h-2.99l-2.61-1.5-1.49-2.61v-2.24l1.49-2.23 2.24-1.5z"/>
		<path class="s2" d="m382.37 389.46l1.5 0.37 5.96 3.73 1.87 1.5v1.12l-4.1 1.86-2.99 0.37-4.85-2.98-3.73-1.87 0.75-1.49z"/>
		<path class="s5" d="m364.09 405.13h1.12l0.38 14.55-1.87-1.49-2.61-2.99-1.49-2.61v-2.61l2.24-2.99z"/>
		<path class="s5" d="m373.05 406.25l1.86 0.74 2.99 2.24 1.12 1.87-0.38 2.61-2.61 2.98-2.24 1.87h-1.12v-11.57z"/>
		<path class="s5" d="m372.67 428.63l1.5 0.75 2.23 3.35 0.38 2.62-1.87 3.73-2.24 2.61h-0.74l0.37-12.69z"/>
		<path class="s5" d="m364.84 430.12h0.75l0.37 5.6v4.85l-1.49-0.75-2.24-4.47 0.37-2.62z"/>
		<path id="Internet Patient Registration" fill-rule="evenodd" class="s6" d="m71.61 640.89h4.2v29.11h-4.2zm9.95 8.48h3.82v2.69q1.22-1.38 3.32-2.27 2.14-0.88 4.45-0.88 2.36 0 4.25 0.42 1.89 0.42 3.19 1.35 1.34 0.88 2.01 2.31 0.72 1.38 0.72 3.36v13.65h-3.99v-13.15q0-1.22-0.55-2.14-0.5-0.97-1.47-1.64-0.92-0.67-2.18-1.01-1.26-0.33-2.69-0.33-3.07 0-5 1.51-1.89 1.51-1.89 4.16v12.6h-3.99zm29.14 15.45v-12.72h-3.86v-2.73h3.86v-6.05h3.99v6.05h6.09v2.73h-6.09v12.43q0 1.51 0.72 2.22 0.75 0.72 2.6 0.72 0.38 0 0.84 0 0.51-0.04 0.93-0.09 0.46-0.04 0.96-0.12v2.73q-0.42 0.08-0.96 0.12-0.55 0.05-1.1 0.09-0.54 0.04-1 0.04-0.47 0-0.76 0-3.15 0-4.7-1.47-1.52-1.47-1.52-3.95zm31.8-1.68h4.11q-1.01 3.99-3.9 5.67-2.86 1.64-7.23 1.64-3.11 0-5.33-0.8-2.23-0.84-3.7-2.27-1.43-1.42-2.14-3.4-0.67-1.97-0.67-4.28 0-2.73 0.84-4.75 0.84-2.06 2.39-3.36 1.56-1.34 3.7-1.97 2.18-0.67 4.83-0.67 2.52 0 4.53 0.67 2.06 0.67 3.53 2.01 1.47 1.31 2.27 3.32 0.8 1.98 0.8 4.66v0.76h-18.82q0.09 1.47 0.55 2.81 0.5 1.31 1.43 2.31 0.96 1.01 2.39 1.6 1.43 0.59 3.4 0.59 2.69 0 4.41-1.05 1.77-1.05 2.61-3.49zm-14.79-5.37h14.62q-0.09-1.22-0.63-2.31-0.51-1.14-1.39-1.94-0.88-0.84-2.14-1.3-1.22-0.5-2.77-0.5-1.6 0-2.94 0.5-1.35 0.46-2.4 1.3-1 0.8-1.63 1.89-0.63 1.1-0.72 2.36zm33.98-5.93q-3.53 0-5.33 1.6-1.81 1.6-1.81 5.33v11.22h-3.99v-20.62h3.82v2.89q0.93-1.34 2.86-2.35 1.97-1.01 4.45-1.01 0.72 0 1.43 0.09 0.76 0.08 1.26 0.17v2.98q-0.59-0.17-1.34-0.21-0.72-0.09-1.35-0.09zm5.87-2.47h3.82v2.68q1.22-1.38 3.32-2.26 2.14-0.89 4.45-0.89 2.36 0 4.25 0.42 1.89 0.42 3.19 1.35 1.34 0.88 2.01 2.31 0.72 1.38 0.72 3.36v13.65h-3.99v-13.15q0-1.22-0.55-2.14-0.5-0.97-1.47-1.64-0.92-0.67-2.18-1.01-1.26-0.33-2.69-0.33-3.07 0-5 1.51-1.89 1.51-1.89 4.16v12.6h-3.99zm44.94 13.77h4.11q-1.01 3.99-3.9 5.67-2.86 1.64-7.23 1.64-3.11 0-5.33-0.8-2.23-0.84-3.7-2.26-1.43-1.43-2.14-3.41-0.67-1.97-0.67-4.28 0-2.73 0.84-4.75 0.84-2.05 2.39-3.36 1.56-1.34 3.7-1.97 2.18-0.67 4.83-0.67 2.52 0 4.53 0.67 2.06 0.67 3.53 2.02 1.47 1.3 2.27 3.31 0.8 1.98 0.8 4.67v0.75h-18.82q0.09 1.47 0.55 2.82 0.5 1.3 1.43 2.31 0.96 1 2.39 1.59 1.43 0.59 3.4 0.59 2.69 0 4.41-1.05 1.77-1.05 2.61-3.49zm-14.79-5.37h14.62q-0.09-1.22-0.63-2.31-0.51-1.14-1.39-1.93-0.88-0.84-2.14-1.31-1.22-0.5-2.77-0.5-1.6 0-2.94 0.5-1.35 0.47-2.4 1.31-1 0.79-1.63 1.89-0.63 1.09-0.72 2.35zm24.99 7.05v-12.72h-3.86v-2.73h3.86v-6.05h3.99v6.05h6.09v2.73h-6.09v12.43q0 1.51 0.72 2.23 0.75 0.71 2.6 0.71 0.38 0 0.84 0 0.51-0.04 0.93-0.08 0.46-0.05 0.96-0.13v2.73q-0.42 0.08-0.96 0.13-0.55 0.04-1.1 0.08-0.54 0.04-1 0.04-0.47 0-0.76 0-3.15 0-4.7-1.47-1.52-1.47-1.52-3.95zm41.8-6.84h-8.02v12.01h-4.08v-29.11h11.68q2.73 0 5.04 0.51 2.31 0.46 3.95 1.51 1.68 1.05 2.6 2.69 0.92 1.59 0.92 3.86 0 2.4-0.92 4.03-0.88 1.64-2.48 2.65-1.59 1.01-3.82 1.43-2.23 0.42-4.87 0.42zm-8.02-13.9v10.79h8.9q3.74 0 5.33-1.26 1.64-1.26 1.73-4.16-0.09-2.77-1.98-4.07-1.85-1.3-5.08-1.3zm43.58 25.91h-3.65q-0.09-0.25-0.13-0.67-0.12-0.67-0.12-2.27-1.01 1.39-3.07 2.39-2.06 0.97-4.87 0.97-1.72 0-3.4-0.34-1.64-0.33-2.99-1.05-1.3-0.75-2.14-1.89-0.8-1.17-0.8-2.85 0-1.56 0.84-2.69 0.84-1.18 2.15-1.93 1.34-0.76 2.98-1.14 1.68-0.42 3.27-0.46l7.77-0.21v-1.76q0-2.4-1.51-3.36-1.51-1.01-4.24-1.01-2.81 0-4.16 0.92-1.3 0.89-1.85 2.69h-4.11q0.04-1.17 0.67-2.31 0.67-1.17 1.93-2.1 1.26-0.92 3.11-1.47 1.89-0.54 4.41-0.54 2.77 0 4.62 0.63 1.85 0.58 2.94 1.72 1.13 1.09 1.6 2.69 0.5 1.55 0.5 3.44v9.7q0 1.56 0.13 2.23 0.04 0.42 0.12 0.67zm-4.11-8.23v-1.22l-7.56 0.21q-2.69 0.08-4.08 0.92-1.38 0.84-1.38 2.61 0 1.47 1.55 2.39 1.55 0.93 3.95 0.93 1.68 0 3.06-0.47 1.39-0.46 2.36-1.26 1-0.79 1.55-1.84 0.55-1.05 0.55-2.27zm10.76 3.06v-12.72h-3.87v-2.73h3.87v-6.05h3.99v6.05h6.09v2.73h-6.09v12.43q0 1.51 0.71 2.23 0.76 0.71 2.61 0.71 0.37 0 0.84 0 0.5-0.04 0.92-0.08 0.46-0.05 0.97-0.13v2.73q-0.42 0.08-0.97 0.13-0.55 0.04-1.09 0.08-0.55 0.04-1.01 0.04-0.46 0-0.76 0-3.15 0-4.7-1.47-1.51-1.47-1.51-3.95zm17.97 5.17h-3.99v-20.62h3.99zm0.17-25.83h-4.28v-3.74h4.28zm22.65 18.98h4.12q-1.01 3.99-3.91 5.67-2.86 1.64-7.22 1.64-3.11 0-5.34-0.8-2.22-0.84-3.69-2.26-1.43-1.43-2.15-3.41-0.67-1.97-0.67-4.28 0-2.73 0.84-4.75 0.84-2.05 2.4-3.36 1.55-1.34 3.69-1.97 2.19-0.67 4.83-0.67 2.52 0 4.54 0.67 2.06 0.67 3.53 2.02 1.47 1.3 2.26 3.31 0.8 1.98 0.8 4.67v0.75h-18.81q0.08 1.47 0.54 2.82 0.51 1.3 1.43 2.31 0.97 1 2.39 1.59 1.43 0.59 3.41 0.59 2.68 0 4.41-1.05 1.76-1.05 2.6-3.49zm-14.78-5.37h14.61q-0.08-1.22-0.63-2.31-0.5-1.14-1.38-1.93-0.89-0.84-2.15-1.31-1.21-0.5-2.77-0.5-1.59 0-2.94 0.5-1.34 0.47-2.39 1.31-1.01 0.79-1.64 1.89-0.63 1.09-0.71 2.35zm22.85-8.4h3.82v2.69q1.22-1.39 3.32-2.27 2.14-0.88 4.45-0.88 2.35 0 4.24 0.42 1.89 0.42 3.19 1.34 1.35 0.88 2.02 2.31 0.71 1.39 0.71 3.36v13.65h-3.99v-13.15q0-1.21-0.54-2.14-0.51-0.96-1.47-1.64-0.93-0.67-2.19-1-1.26-0.34-2.69-0.34-3.06 0-4.99 1.51-1.89 1.51-1.89 4.16v12.6h-3.99zm29.14 15.46v-12.73h-3.87v-2.73h3.87v-6.05h3.99v6.05h6.09v2.73h-6.09v12.43q0 1.51 0.71 2.23 0.76 0.71 2.61 0.71 0.37 0 0.84 0 0.5-0.04 0.92-0.08 0.46-0.04 0.97-0.13v2.73q-0.42 0.09-0.97 0.13-0.55 0.04-1.09 0.08-0.55 0.04-1.01 0.04-0.46 0-0.76 0-3.15 0-4.7-1.47-1.51-1.47-1.51-3.94zm55.44 5.16h-4.83l-9.41-12.26h-7.35v12.26h-4.15v-29.1h11.59q2.64 0 4.91 0.5 2.31 0.5 3.99 1.55 1.68 1.05 2.61 2.65 0.96 1.55 0.96 3.74 0 3.4-1.97 5.42-1.98 1.97-6.05 2.43zm-13.02-25.95h-8.57v10.58h8.57q3.57 0 5.29-1.22 1.77-1.26 1.77-4.07 0-1.3-0.55-2.31-0.55-1.01-1.51-1.64-0.93-0.67-2.23-1.01-1.26-0.33-2.77-0.33zm34.37 19.11h4.11q-1 3.99-3.9 5.67-2.86 1.63-7.23 1.63-3.1 0-5.33-0.79-2.23-0.84-3.7-2.27-1.42-1.43-2.14-3.4-0.67-1.98-0.67-4.29 0-2.73 0.84-4.74 0.84-2.06 2.39-3.36 1.56-1.35 3.7-1.98 2.18-0.67 4.83-0.67 2.52 0 4.54 0.67 2.05 0.67 3.52 2.02 1.47 1.3 2.27 3.32 0.8 1.97 0.8 4.66v0.75h-18.82q0.09 1.47 0.55 2.82 0.5 1.3 1.43 2.31 0.96 1.01 2.39 1.59 1.43 0.59 3.4 0.59 2.69 0 4.41-1.05 1.77-1.05 2.61-3.48zm-14.79-5.38h14.62q-0.08-1.22-0.63-2.31-0.5-1.13-1.39-1.93-0.88-0.84-2.14-1.3-1.22-0.51-2.77-0.51-1.6 0-2.94 0.51-1.34 0.46-2.39 1.3-1.01 0.8-1.64 1.89-0.63 1.09-0.72 2.35zm42 12.6v-2.77q-0.93 0.92-1.98 1.51-1 0.55-2.01 0.84-0.97 0.29-1.85 0.38-0.88 0.08-1.47 0.08-2.98 0-5.17-0.8-2.18-0.79-3.61-2.22-1.43-1.43-2.14-3.4-0.71-2.02-0.71-4.37 0-5.08 3.02-7.86 3.02-2.81 8.61-2.81 2.44 0 4.28 0.71 1.89 0.68 3.11 2.1v-2.39h3.91v21.13q0 1.97-0.8 3.52-0.8 1.52-2.27 2.61-1.43 1.05-3.4 1.64-1.97 0.54-4.33 0.54-5.2 0-7.93-1.47-2.69-1.47-3.28-5.08h4.16q0.46 1.76 1.97 2.77 1.51 0.97 4.54 0.97 1.51 0 2.85-0.34 1.35-0.38 2.36-1.09 1-0.71 1.55-1.76 0.59-1.05 0.59-2.44zm-7.18-18.69q-1.89 0-3.32 0.59-1.43 0.59-2.4 1.68-0.92 1.05-1.42 2.52-0.47 1.43-0.47 3.19 0 1.76 0.47 3.23 0.5 1.43 1.42 2.48 0.97 1.05 2.4 1.64 1.47 0.59 3.36 0.59 1.97 0 3.36-0.67 1.38-0.72 2.27-1.81 0.88-1.13 1.26-2.56 0.42-1.43 0.42-2.9 0-1.47-0.42-2.9-0.38-1.43-1.26-2.56-0.89-1.13-2.31-1.81-1.39-0.71-3.36-0.71zm19.15 18.31h-3.99v-20.62h3.99zm0.17-25.83h-4.29v-3.74h4.29zm22.31 10.84h-3.78q-0.17-1.68-1.64-2.48-1.47-0.84-3.82-0.84-0.96 0-1.89 0.17-0.92 0.17-1.64 0.54-0.71 0.34-1.13 0.89-0.42 0.54-0.42 1.3 0 1.47 1.09 2.18 1.14 0.67 2.82 1.01 1.72 0.34 3.65 0.59 1.97 0.21 3.65 0.8 1.73 0.58 2.82 1.76 1.13 1.18 1.13 3.4 0 1.72-0.88 2.9-0.88 1.18-2.31 1.89-1.39 0.71-3.11 1.05-1.68 0.29-3.32 0.29-2.18 0-4.03-0.42-1.85-0.42-3.19-1.21-1.3-0.8-2.06-1.98-0.71-1.17-0.71-2.64h4.03q0.55 3.52 5.96 3.52 0.93 0 1.94-0.12 1-0.17 1.84-0.55 0.84-0.38 1.35-1.05 0.54-0.67 0.54-1.72 0-1.05-0.67-1.64-0.63-0.59-1.72-0.92-1.05-0.38-2.39-0.55-1.35-0.21-2.78-0.42-1.42-0.21-2.77-0.54-1.34-0.34-2.43-0.97-1.05-0.63-1.73-1.64-0.63-1.01-0.63-2.6 0-1.6 0.72-2.73 0.75-1.14 1.97-1.85 1.26-0.76 2.9-1.09 1.64-0.38 3.44-0.38 2.06 0 3.74 0.42 1.68 0.42 2.9 1.22 1.22 0.75 1.89 1.89 0.67 1.09 0.67 2.52zm7.55 9.83v-12.73h-3.87v-2.73h3.87v-6.05h3.99v6.05h6.09v2.73h-6.09v12.43q0 1.51 0.71 2.23 0.76 0.71 2.6 0.71 0.38 0 0.84 0 0.51-0.04 0.93-0.08 0.46-0.04 0.96-0.13v2.73q-0.42 0.09-0.96 0.13-0.55 0.04-1.09 0.08-0.55 0.04-1.01 0.04-0.46 0-0.76 0-3.15 0-4.7-1.47-1.51-1.47-1.51-3.94zm24.98-12.98q-3.52 0-5.33 1.59-1.81 1.6-1.81 5.34v11.21h-3.99v-20.62h3.83v2.9q0.92-1.35 2.85-2.35 1.98-1.01 4.45-1.01 0.72 0 1.43 0.08 0.76 0.09 1.26 0.17v2.98q-0.59-0.17-1.34-0.21-0.72-0.08-1.35-0.08zm25.37 18.14h-3.65q-0.09-0.25-0.13-0.67-0.13-0.67-0.13-2.27-1 1.39-3.06 2.4-2.06 0.96-4.87 0.96-1.73 0-3.41-0.33-1.63-0.34-2.98-1.05-1.3-0.76-2.14-1.89-0.8-1.18-0.8-2.86 0-1.55 0.84-2.69 0.84-1.17 2.14-1.93 1.35-0.76 2.99-1.13 1.68-0.42 3.27-0.47l7.77-0.21v-1.76q0-2.39-1.51-3.36-1.51-1.01-4.24-1.01-2.82 0-4.16 0.93-1.3 0.88-1.85 2.68h-4.11q0.04-1.17 0.67-2.31 0.67-1.17 1.93-2.1 1.26-0.92 3.11-1.47 1.89-0.54 4.41-0.54 2.77 0 4.62 0.63 1.85 0.59 2.94 1.72 1.13 1.09 1.59 2.69 0.51 1.55 0.51 3.44v9.7q0 1.56 0.12 2.23 0.05 0.42 0.13 0.67zm-4.12-8.23v-1.22l-7.56 0.21q-2.68 0.09-4.07 0.93-1.39 0.84-1.39 2.6 0 1.47 1.56 2.39 1.55 0.93 3.95 0.93 1.68 0 3.06-0.46 1.39-0.47 2.35-1.26 1.01-0.8 1.56-1.85 0.54-1.05 0.54-2.27zm10.77 3.07v-12.73h-3.87v-2.73h3.87v-6.05h3.99v6.05h6.09v2.73h-6.09v12.43q0 1.51 0.71 2.23 0.76 0.71 2.6 0.71 0.38 0 0.84 0 0.51-0.04 0.93-0.08 0.46-0.04 0.96-0.13v2.73q-0.42 0.09-0.96 0.13-0.55 0.04-1.09 0.08-0.55 0.04-1.01 0.04-0.46 0-0.76 0-3.15 0-4.7-1.47-1.51-1.47-1.51-3.94zm17.97 5.16h-3.99v-20.62h3.99zm0.17-25.83h-4.29v-3.74h4.29zm15.63 4.79q3.03 0 5.21 0.8 2.23 0.75 3.66 2.18 1.42 1.43 2.1 3.4 0.71 1.94 0.71 4.33 0 5.17-2.94 7.98-2.94 2.81-8.74 2.81-5.83 0-8.77-2.81-2.94-2.81-2.94-7.98 0-2.39 0.67-4.33 0.71-1.97 2.14-3.4 1.47-1.43 3.65-2.18 2.23-0.8 5.25-0.8zm0 2.73q-2.01 0-3.48 0.67-1.43 0.63-2.35 1.77-0.93 1.09-1.39 2.56-0.42 1.43-0.42 3.02 0 1.6 0.42 3.03 0.46 1.42 1.39 2.52 0.92 1.09 2.35 1.72 1.47 0.63 3.48 0.63 2.02 0 3.45-0.63 1.47-0.63 2.35-1.72 0.92-1.1 1.34-2.52 0.47-1.43 0.47-3.03 0-1.59-0.47-3.02-0.42-1.47-1.34-2.56-0.88-1.14-2.35-1.77-1.43-0.67-3.45-0.67zm16.08-2.31h3.83v2.69q1.21-1.39 3.31-2.27 2.15-0.88 4.46-0.88 2.35 0 4.24 0.42 1.89 0.42 3.19 1.34 1.34 0.88 2.02 2.31 0.71 1.39 0.71 3.36v13.65h-3.99v-13.14q0-1.22-0.55-2.15-0.5-0.96-1.47-1.63-0.92-0.68-2.18-1.01-1.26-0.34-2.69-0.34-3.06 0-5 1.51-1.89 1.52-1.89 4.16v12.6h-3.99z"/>
	</g>
</svg>